<svg xmlns="http://www.w3.org/2000/svg" viewBox="0 0 283.5 283.5"><linearGradient id="a" gradientUnits="userSpaceOnUse" x1="90.83" y1="-7.03" x2="154.767" y2="255.55"><stop offset="0" stop-color="#006884"/><stop offset="1" stop-color="#8ad1d0"/></linearGradient><path d="M16.7 141.8V21.5c0-6.5 5.7-12.7 11.8-12.7 5.5 0 8.1 1.6 10.9 3l220.4 120.5c4.7 2.6 7.1 6 7.1 9.4 0 3.4-2.3 6.8-7.1 9.4L39.3 271.6c-2.7 1.4-5.4 3-10.9 3-6.1 0-11.8-6.2-11.8-12.7V141.8z" fill-rule="evenodd" clip-rule="evenodd" fill="url(#a)"/><linearGradient id="b" gradientUnits="userSpaceOnUse" x1="12.862" y1="30.319" x2="187.102" y2="124.514"><stop offset="0" stop-color="#24bbb6"/><stop offset="1" stop-color="#dbe692"/></linearGradient><path d="M159.9 142.5L26.4 9.1c.7-.2 1.4-.2 2.1-.2 5.5 0 8.1 1.6 10.9 3l162.4 88.8-41.9 41.8z" fill-rule="evenodd" clip-rule="evenodd" fill="url(#b)"/><linearGradient id="c" gradientUnits="userSpaceOnUse" x1="213.344" y1="187.659" x2="213.344" y2="96.88"><stop offset="0" stop-color="#fcc072"/><stop offset="1" stop-color="#f58a5b"/></linearGradient><path d="M200.7 183.4l-40.9-40.9 41.9-41.9 58 31.7c4.7 2.6 7.1 6 7.1 9.4 0 3.4-2.3 6.8-7.1 9.4l-59 32.3z" fill-rule="evenodd" clip-rule="evenodd" fill="url(#c)"/><linearGradient id="d" gradientUnits="userSpaceOnUse" x1="46.6" y1="297.861" x2="184.243" y2="157.779"><stop offset="0" stop-color="#712b8f"/><stop offset="1" stop-color="#ea1d27"/></linearGradient><path d="M27.8 274.6l.1-.1 132-132 40.9 40.9-161.5 88.2c-2.7 1.4-5.4 3-10.9 3h-.6z" fill-rule="evenodd" clip-rule="evenodd" fill="url(#d)"/></svg>