<svg version="1.1" id="svg14712" xmlns="http://www.w3.org/2000/svg" x="0" y="0" viewBox="32 145 1024 271" xml:space="preserve"><style>.st0{fill:#003087}.st1{fill:#002f86}.st2{fill:#009cde}</style><path id="path14499" class="st0" d="M223.1 170.6c-11.8-13.5-33.2-19.3-60.6-19.3H83.1c-5.6 0-10.4 4.1-11.2 9.6L38.8 370.7c-.7 4.1 2.5 7.9 6.7 7.9h49.1l12.3-78.1-.4 2.4c.9-5.5 5.6-9.6 11.2-9.6H141c45.8 0 81.6-18.6 92.1-72.4.3-1.6.6-3.1.8-4.7-1.3-.7-1.3-.7 0 0 3.1-19.8 0-33.4-10.8-45.6"/><path id="path14519" class="st1" d="M729.9 269.8h-26.4c-2.5 0-4.9 1.3-6.3 3.3l-36.4 53.6-15.4-51.5c-1-3.2-3.9-5.4-7.3-5.4h-25.9c-3.1 0-5.3 3.1-4.3 6l29.1 85.3-27.3 38.6c-2.1 3 0 7.2 3.7 7.2h26.4c2.5 0 4.8-1.2 6.3-3.3L733.7 277c2.1-3.1-.1-7.2-3.8-7.2m-176.5 51.1c-2.5 15-14.4 25.1-29.6 25.1-7.6 0-13.7-2.5-17.6-7.1-3.9-4.6-5.3-11.2-4.1-18.4 2.4-14.9 14.5-25.3 29.4-25.3 7.5 0 13.5 2.5 17.5 7.2s5.6 11.3 4.4 18.5m36.6-51.1h-26.3c-2.2 0-4.2 1.6-4.5 3.9L558 281l-1.8-2.7c-5.7-8.3-18.4-11-31-11-29 0-53.8 22-58.6 52.8-2.5 15.4 1.1 30.1 9.8 40.4 8 9.4 19.4 13.4 33.1 13.4 23.4 0 36.4-15 36.4-15l-1.2 7.3c-.4 2.8 1.7 5.3 4.5 5.3h23.6c3.8 0 6.9-2.7 7.5-6.4l14.2-89.9c.5-2.9-1.7-5.4-4.5-5.4m-157.6.6c-3 19.7-18 19.7-32.6 19.7h-8.3l5.8-36.8c.3-2.2 2.3-3.9 4.5-3.9h3.8c9.9 0 19.2 0 24.1 5.6 2.9 3.5 3.8 8.5 2.7 15.4m-6.3-51.3h-54.8c-3.8 0-6.9 2.7-7.5 6.4l-22.2 140.6c-.4 2.8 1.7 5.3 4.5 5.3h26.2c3.7 0 6.9-2.7 7.5-6.4l6-37.9c.6-3.7 3.8-6.4 7.5-6.4h17.4c36.1 0 57-17.5 62.4-52.1 2.5-15.1.1-27.1-7-35.4-7.8-9.3-21.7-14.1-40-14.1"/><path id="path14523" class="st2" d="M1012.2 222.9l-22.5 143.2c-.4 2.8 1.7 5.3 4.5 5.3h22.6c3.7 0 6.9-2.7 7.5-6.4l22.2-140.6c.4-2.8-1.7-5.3-4.5-5.3h-25.3c-2.2 0-4.2 1.6-4.5 3.8m-67.6 98c-2.5 15-14.4 25.1-29.6 25.1-7.6 0-13.7-2.5-17.6-7.1-3.9-4.6-5.3-11.2-4.1-18.4 2.4-14.9 14.5-25.3 29.4-25.3 7.5 0 13.5 2.5 17.5 7.2s5.6 11.3 4.4 18.5m36.6-51.1H955c-2.2 0-4.2 1.6-4.5 3.9l-1.2 7.3-1.8-2.7c-5.7-8.3-18.4-11-31-11-29 0-53.8 22-58.6 52.8-2.5 15.4 1.1 30.1 9.8 40.4 8 9.4 19.4 13.4 33.1 13.4 23.4 0 36.4-15 36.4-15l-1.2 7.3c-.4 2.8 1.7 5.3 4.5 5.3H964c3.8 0 6.9-2.7 7.5-6.4l14.2-89.9c.5-2.9-1.7-5.4-4.5-5.4m-157.6.6c-3 19.7-18 19.7-32.6 19.7h-8.3l5.8-36.8c.3-2.2 2.3-3.9 4.5-3.9h3.8c9.9 0 19.2 0 24.1 5.6 2.9 3.5 3.8 8.5 2.7 15.4m-6.3-51.3h-54.8c-3.8 0-6.9 2.7-7.5 6.4l-22.2 140.6c-.4 2.8 1.7 5.3 4.5 5.3h28.1c2.6 0 4.9-1.9 5.3-4.5L777 327c.6-3.7 3.8-6.4 7.5-6.4h17.4c36.1 0 57-17.5 62.4-52.1 2.5-15.1.1-27.1-7-35.4-7.8-9.2-21.7-14-40-14"/><path id="path14527" class="st0" d="M223.1 170.6c-11.8-13.5-33.2-19.3-60.6-19.3H83.1c-5.6 0-10.4 4.1-11.2 9.6L38.8 370.7c-.7 4.1 2.5 7.9 6.7 7.9h49.1l12.3-78.1-.4 2.4c.9-5.5 5.6-9.6 11.2-9.6H141c45.8 0 81.6-18.6 92.1-72.4.3-1.6.6-3.1.8-4.7-1.3-.7-1.3-.7 0 0 3.1-19.8 0-33.4-10.8-45.6"/><path id="path14531" class="st1" d="M120.1 216.5c.5-3.3 2.7-6 5.5-7.4 1.3-.6 2.8-1 4.3-1h62.3c7.4 0 14.3.5 20.5 1.5 1.8.3 3.6.6 5.2 1 1.7.4 3.3.8 4.9 1.3.8.2 1.6.5 2.4.7 3.1 1 6 2.2 8.6 3.6 3.1-19.9 0-33.4-10.8-45.7-11.8-13.5-33.2-19.3-60.6-19.3H83.1c-5.6 0-10.4 4.1-11.2 9.6L38.8 370.7c-.7 4.1 2.5 7.9 6.7 7.9h49.1l12.3-78.1 13.2-84z"/><path id="path14535" class="st2" d="M233.9 216.3c-.2 1.5-.5 3.1-.8 4.7-10.5 53.8-46.3 72.4-92.1 72.4h-23.3c-5.6 0-10.3 4.1-11.2 9.6l-11.9 75.7-3.4 21.5c-.6 3.6 2.2 6.9 5.9 6.9h41.3c4.9 0 9.1-3.6 9.8-8.4l.4-2.1 7.8-49.4.5-2.7c.8-4.8 4.9-8.4 9.8-8.4h6.2c40.1 0 71.4-16.3 80.6-63.3 3.8-19.7 1.8-36.1-8.3-47.6-3-3.7-6.8-6.6-11.3-8.9"/><path id="path14539" d="M223 211.9c-1.6-.5-3.2-.9-4.9-1.3-1.7-.4-3.5-.7-5.2-1-6.3-1-13.2-1.5-20.6-1.5H130c-1.5 0-3 .3-4.3 1-2.9 1.4-5 4.1-5.5 7.4L107 300.4l-.4 2.4c.9-5.5 5.6-9.6 11.2-9.6H141c45.8 0 81.6-18.6 92.1-72.4.3-1.6.6-3.1.8-4.7-2.7-1.4-5.5-2.6-8.6-3.6-.8-.1-1.5-.4-2.3-.6" fill="#012069"/></svg>