<?xml version="1.0" encoding="UTF-8"?>
<!DOCTYPE svg PUBLIC "-//W3C//DTD SVG 1.1//EN" "http://www.w3.org/Graphics/SVG/1.1/DTD/svg11.dtd">
<!-- Creator: CorelDRAW 2020 (64 Bit) -->
<svg xmlns="http://www.w3.org/2000/svg" xml:space="preserve" width="81.6154mm" height="11.0066mm" version="1.1" style="shape-rendering:geometricPrecision; text-rendering:geometricPrecision; image-rendering:optimizeQuality; fill-rule:evenodd; clip-rule:evenodd"
viewBox="0 0 48297.35 6513.35"
 xmlns:xlink="http://www.w3.org/1999/xlink"
 xmlns:xodm="http://www.corel.com/coreldraw/odm/2003">
 <defs>
  <style type="text/css">
   <![CDATA[
    .fil6 {fill:none}
    .fil1 {fill:#87DC28}
    .fil4 {fill:#87DC28}
    .fil2 {fill:#B9E51F}
    .fil0 {fill:#FEFEFE;fill-rule:nonzero}
    .fil5 {fill:#FEFEFE;fill-rule:nonzero}
    .fil3 {fill:#727376;fill-rule:nonzero}
   ]]>
  </style>
    <mask id="id0">
  <linearGradient id="id1" gradientUnits="userSpaceOnUse" x1="5045.12" y1="1042.96" x2="3102.16" y2="4408.3">
   <stop offset="0" style="stop-opacity:1; stop-color:white"/>
   <stop offset="1" style="stop-opacity:0; stop-color:white"/>
  </linearGradient>
     <rect style="fill:url(#id1)" x="1874.42" y="3708.02" width="4222.02" height="1204.96"/>
    </mask>
    <mask id="id2">
  <linearGradient id="id3" gradientUnits="userSpaceOnUse" x1="8355.06" y1="7192.46" x2="8355.17" y2="2923.84">
   <stop offset="0" style="stop-opacity:1; stop-color:white"/>
   <stop offset="1" style="stop-opacity:0; stop-color:white"/>
  </linearGradient>
     <rect style="fill:url(#id3)" x="11.36" y="717.75" width="23602.18" height="5077.72"/>
    </mask>
 </defs>
 <g id="Camada_x0020_1">
  <metadata id="CorelCorpID_0Corel-Layer"/>
  <g id="_1741313271152">
   <path class="fil0" d="M4129.59 5704.46c-108.47,-280.14 -201.44,-514.9 -285.59,-723.55l1347.93 0.12 303.4 723.44 -1365.74 0zm-839.36 -2064.14c-145.46,-354.59 -314.88,-777.29 -547.39,-1382.9 -279.55,713.2 -459.98,1151.58 -611.18,1509.78l-1288.63 0.41 1276.5 -2972.74 1316.62 0 1193.42 2845.46 -852.5 0.3 -486.85 -0.3zm-1618.9 1213.42c-95.51,231.03 -205.58,502.35 -343.23,850.73l-1316.74 0 365.3 -850.78 185.99 0 1108.68 0.06zm7479.11 -2392.04c-158.71,-200.73 -347.84,-360.68 -567.27,-479.69 -219.43,-119.12 -436.61,-178.65 -651.36,-178.65 -247.48,0 -574.67,61.96 -777.76,185.64 -203.09,123.74 -363.11,294.17 -479.81,511.23 -116.64,217.18 -175.04,458.8 -175.04,724.92 0,266.12 58.41,507.8 175.04,724.92 116.7,217 276.71,387.49 479.81,511.23 203.09,123.68 530.28,185.58 777.76,185.58 200.79,0 410.86,-51.37 630.35,-154.04 219.43,-102.73 415.54,-242.8 588.28,-420.27l749.41 805.51c-266.12,280.08 -582.48,503.06 -949.02,668.82 -366.48,165.75 -729.53,248.6 -1089.03,248.6 -485.66,0 -924.52,-112.02 -1316.74,-336.18 -229.84,-131.37 -430.93,-290.68 -603.01,-478.21l300.74 0 -0.12 -0.3 0.12 0 -1.6 -3.55 -551.94 -1337.28 -377.37 0.12c-18.34,-129.83 -27.46,-263.51 -27.46,-400.98 0,-476.2 114.39,-905.76 343.17,-1288.63 228.84,-382.93 542.77,-684.02 941.98,-903.51 399.27,-219.43 846.29,-329.2 1341.24,-329.2 364.23,0 723.73,75.86 1078.56,227.71 354.88,151.73 656.03,358.32 903.51,619.82l-742.43 896.41zm1072.34 -1666.83l4209.24 0 0 1057.55 -1470.78 0 0 3852.05 -1281.71 0 0 -3852.05 -1456.75 0 0 -1057.55zm4727.57 0l3873.06 0 0 1022.52 -2591.41 0 0 917.54 2084.38 0 0 1015.53 -2084.38 6.98 0 924.52 2661.42 0 0 1022.52 -3943.07 0 0 -4909.6zm7913.77 1666.83c-158.71,-200.73 -347.96,-360.8 -567.27,-479.69 -219.37,-119 -436.61,-178.65 -651.36,-178.65 -247.48,0 -574.78,62.08 -777.76,185.64 -202.98,123.62 -363.23,294.29 -479.81,511.23 -116.58,217.06 -175.1,458.8 -175.1,724.92 0,266.12 58.53,507.91 175.1,724.92 116.58,216.88 276.83,387.61 479.81,511.23 202.98,123.56 530.28,185.58 777.76,185.58 200.79,0 410.98,-51.48 630.35,-154.04 219.31,-102.61 415.54,-242.8 588.28,-420.27l749.41 805.51c-266.18,280.08 -582.48,503.06 -949.02,668.82 -366.54,165.75 -729.53,248.6 -1089.09,248.6 -485.6,0 -924.58,-112.14 -1316.68,-336.18 -392.05,-223.98 -700.36,-529.99 -924.46,-917.48 -224.1,-387.55 -336.24,-821.73 -336.24,-1302.72 0,-476.2 114.45,-905.76 343.23,-1288.63 228.84,-382.93 542.77,-684.08 941.98,-903.51 399.21,-219.43 846.29,-329.2 1341.24,-329.2 364.23,0 723.85,75.98 1078.56,227.71 354.71,151.61 656.03,358.32 903.51,619.82l-742.43 896.41z"/>
   <polygon class="fil1" points="6037.27,4853.68 1933.6,4853.8 2393.88,3767.19 3984.19,3767.72 5588.77,3767.19 "/>
   <polygon class="fil2" style="mask:url(#id0)" points="6037.27,4853.68 1933.6,4853.8 2393.88,3767.19 3984.19,3767.72 5588.77,3767.19 "/>
   <path class="fil3" style="mask:url(#id2)" d="M4129.59 5704.46c-108.47,-280.14 -201.44,-514.9 -285.59,-723.55l1347.93 0.12 303.4 723.44 -1365.74 0zm-839.36 -2064.14c-145.46,-354.59 -314.88,-777.29 -547.39,-1382.9 -279.55,713.2 -459.98,1151.58 -611.18,1509.78l-1288.63 0.41 1276.5 -2972.74 1316.62 0 1193.42 2845.46 -852.5 0.3 -486.85 -0.3zm-1618.9 1213.42c-95.51,231.03 -205.58,502.35 -343.23,850.73l-1316.74 0 365.3 -850.78 185.99 0 1108.68 0.06zm7479.11 -2392.04c-158.71,-200.73 -347.84,-360.68 -567.27,-479.69 -219.43,-119.12 -436.61,-178.65 -651.36,-178.65 -247.48,0 -574.67,61.96 -777.76,185.64 -203.09,123.74 -363.11,294.17 -479.81,511.23 -116.64,217.18 -175.04,458.8 -175.04,724.92 0,266.12 58.41,507.8 175.04,724.92 116.7,217 276.71,387.49 479.81,511.23 203.09,123.68 530.28,185.58 777.76,185.58 200.79,0 410.86,-51.37 630.35,-154.04 219.43,-102.73 415.54,-242.8 588.28,-420.27l749.41 805.51c-266.12,280.08 -582.48,503.06 -949.02,668.82 -366.48,165.75 -729.53,248.6 -1089.03,248.6 -485.66,0 -924.52,-112.02 -1316.74,-336.18 -229.84,-131.37 -430.93,-290.68 -603.01,-478.21l300.74 0 -0.12 -0.3 0.12 0 -1.6 -3.55 -551.94 -1337.28 -377.37 0.12c-18.34,-129.83 -27.46,-263.51 -27.46,-400.98 0,-476.2 114.39,-905.76 343.17,-1288.63 228.84,-382.93 542.77,-684.02 941.98,-903.51 399.27,-219.43 846.29,-329.2 1341.24,-329.2 364.23,0 723.73,75.86 1078.56,227.71 354.88,151.73 656.03,358.32 903.51,619.82l-742.43 896.41zm1072.34 -1666.83l4209.24 0 0 1057.55 -1470.78 0 0 3852.05 -1281.71 0 0 -3852.05 -1456.75 0 0 -1057.55zm4727.57 0l3873.06 0 0 1022.52 -2591.41 0 0 917.54 2084.38 0 0 1015.53 -2084.38 6.98 0 924.52 2661.42 0 0 1022.52 -3943.07 0 0 -4909.6zm7913.77 1666.83c-158.71,-200.73 -347.96,-360.8 -567.27,-479.69 -219.37,-119 -436.61,-178.65 -651.36,-178.65 -247.48,0 -574.78,62.08 -777.76,185.64 -202.98,123.62 -363.23,294.29 -479.81,511.23 -116.58,217.06 -175.1,458.8 -175.1,724.92 0,266.12 58.53,507.91 175.1,724.92 116.58,216.88 276.83,387.61 479.81,511.23 202.98,123.56 530.28,185.58 777.76,185.58 200.79,0 410.98,-51.48 630.35,-154.04 219.31,-102.61 415.54,-242.8 588.28,-420.27l749.41 805.51c-266.18,280.08 -582.48,503.06 -949.02,668.82 -366.54,165.75 -729.53,248.6 -1089.09,248.6 -485.6,0 -924.58,-112.14 -1316.68,-336.18 -392.05,-223.98 -700.36,-529.99 -924.46,-917.48 -224.1,-387.55 -336.24,-821.73 -336.24,-1302.72 0,-476.2 114.45,-905.76 343.23,-1288.63 228.84,-382.93 542.77,-684.08 941.98,-903.51 399.21,-219.43 846.29,-329.2 1341.24,-329.2 364.23,0 723.85,75.98 1078.56,227.71 354.71,151.61 656.03,358.32 903.51,619.82l-742.43 896.41z"/>
  </g>
  <rect class="fil4" x="36150.31" y="5968.02" width="11890.68" height="363.52"/>
  <path class="fil5" d="M28729.96 3222.41l-158 -354.11 -738.76 0 -156.11 354.11 -140.9 0 599.76 -1330.89 137.05 0 599.76 1330.89 -142.79 0zm-845.34 -472.17l635.91 0 -319.85 -719.71 -316.06 719.71zm2246.7 -588.34c-53.32,-52.02 -114.92,-92.67 -184.69,-121.84 -69.83,-29.17 -142.2,-43.79 -217.06,-43.79 -102.85,0 -197.06,24.74 -282.75,74.27 -85.69,49.47 -153.56,117.05 -203.75,202.74 -50.12,85.69 -75.21,179.31 -75.21,280.85 0,101.55 25.09,194.81 75.21,279.91 50.18,85.04 118.06,152.62 203.75,202.74 85.69,50.12 179.9,75.21 282.75,75.21 73.62,0 145.34,-14.26 215.11,-42.84 69.83,-28.58 132.02,-68.23 186.64,-119l79.95 85.69c-66.04,60.95 -141.55,109.18 -226.59,144.69 -85.04,35.57 -171.97,53.32 -260.85,53.32 -125.63,0 -241.15,-30.48 -346.48,-91.37 -105.39,-60.95 -188.83,-143.44 -250.38,-247.54 -61.6,-104.09 -92.37,-217.65 -92.37,-340.8 0,-123.15 31.13,-236.12 93.32,-338.91 62.19,-102.79 146.28,-184.39 252.27,-244.64 105.99,-60.3 221.79,-90.48 347.49,-90.48 90.13,0 177.06,16.87 260.79,50.48 83.79,33.61 157.41,80.3 220.91,139.95l-78.05 91.37zm472.17 -270.38l891.08 0 0 118.06 -759.71 0 0 476.02 679.7 0 0 118 -679.7 0 0 500.75 784.45 0 0 118.06 -915.82 0 0 -1330.89zm2081.07 217.06c-54.62,-34.26 -114.27,-60.6 -179.01,-79 -64.74,-18.4 -125.63,-27.64 -182.74,-27.64 -91.43,0 -164.69,18.11 -219.96,54.27 -55.21,36.22 -82.79,85.39 -82.79,147.59 0,54.56 15.21,99 45.68,133.27 30.48,34.26 67.93,61.25 112.32,80.89 44.44,19.71 105.39,41.6 182.8,65.69 90.13,26.69 162.8,53.02 218.01,79.06 55.21,25.98 102.2,63.79 140.9,113.26 38.7,49.53 58.05,114.86 58.05,196.11 0,71.07 -20,133.92 -59.95,188.48 -40,54.62 -96.16,96.81 -168.54,126.64 -72.31,29.83 -155.46,44.74 -249.37,44.74 -92.67,0 -183.15,-18.4 -271.33,-55.21 -88.23,-36.81 -164.1,-85.69 -227.53,-146.64l60.89 -108.47c59.71,58.35 128.89,104.03 207.53,137.05 78.71,33.02 156.17,49.53 232.33,49.53 101.55,0 182.15,-20.65 241.8,-61.9 59.65,-41.25 89.48,-96.81 89.48,-166.58 0,-55.86 -15.21,-101.55 -45.68,-137.11 -30.48,-35.51 -67.93,-62.85 -112.32,-81.84 -44.44,-19.05 -106.64,-41.25 -186.64,-66.63 -90.07,-27.93 -162.44,-54.27 -217,-79.06 -54.62,-24.74 -100.96,-61.54 -139.01,-110.42 -38.11,-48.88 -57.11,-112.61 -57.11,-191.32 0,-67.28 19,-126.28 57.11,-177.06 38.05,-50.77 91.37,-89.83 159.95,-117.11 68.53,-27.28 147.82,-40.95 237.95,-40.95 72.37,0 145.04,10.77 218.01,32.37 73.02,21.6 137.41,50.12 193.27,85.69l-57.11 112.32zm1262.36 0c-54.62,-34.26 -114.27,-60.6 -179.01,-79 -64.74,-18.4 -125.63,-27.64 -182.74,-27.64 -91.43,0 -164.69,18.11 -219.96,54.27 -55.21,36.22 -82.79,85.39 -82.79,147.59 0,54.56 15.21,99 45.68,133.27 30.48,34.26 67.93,61.25 112.32,80.89 44.44,19.71 105.39,41.6 182.8,65.69 90.13,26.69 162.8,53.02 218.01,79.06 55.21,25.98 102.2,63.79 140.9,113.26 38.7,49.53 58.05,114.86 58.05,196.11 0,71.07 -20,133.92 -59.95,188.48 -40,54.62 -96.16,96.81 -168.54,126.64 -72.31,29.83 -155.46,44.74 -249.37,44.74 -92.67,0 -183.15,-18.4 -271.33,-55.21 -88.23,-36.81 -164.1,-85.69 -227.53,-146.64l60.89 -108.47c59.71,58.35 128.89,104.03 207.53,137.05 78.71,33.02 156.17,49.53 232.33,49.53 101.55,0 182.15,-20.65 241.8,-61.9 59.65,-41.25 89.48,-96.81 89.48,-166.58 0,-55.86 -15.21,-101.55 -45.68,-137.11 -30.48,-35.51 -67.93,-62.85 -112.32,-81.84 -44.44,-19.05 -106.64,-41.25 -186.64,-66.63 -90.07,-27.93 -162.44,-54.27 -217,-79.06 -54.62,-24.74 -100.96,-61.54 -139.01,-110.42 -38.11,-48.88 -57.11,-112.61 -57.11,-191.32 0,-67.28 19,-126.28 57.11,-177.06 38.05,-50.77 91.37,-89.83 159.95,-117.11 68.53,-27.28 147.82,-40.95 237.95,-40.95 72.37,0 145.04,10.77 218.01,32.37 73.02,21.6 137.41,50.12 193.27,85.69l-57.11 112.32zm1089.09 -228.48c126.93,0 243.39,30.18 349.38,90.48 105.99,60.24 190.08,141.85 252.27,244.64 62.19,102.79 93.26,215.76 93.26,338.91 0,123.15 -31.07,236.71 -93.26,340.8 -62.19,104.09 -146.28,186.58 -252.27,247.54 -105.99,60.89 -222.45,91.37 -349.38,91.37 -126.93,0 -243.39,-30.48 -349.38,-91.37 -105.99,-60.95 -190.08,-143.44 -252.27,-247.54 -62.19,-104.09 -93.32,-217.65 -93.32,-340.8 0,-123.15 31.13,-236.12 93.32,-338.91 62.19,-102.79 146.28,-184.39 252.27,-244.64 105.99,-60.3 222.45,-90.48 349.38,-90.48zm1.89 118.06c-101.55,0 -195.46,24.74 -281.8,74.27 -86.28,49.47 -154.87,116.76 -205.64,201.79 -50.77,85.04 -76.16,178.36 -76.16,279.91 0,101.55 25.39,195.46 76.16,281.8 50.77,86.28 119.36,154.51 205.64,204.63 86.34,50.18 180.25,75.21 281.8,75.21 100.25,0 193.27,-25.03 278.9,-75.21 85.69,-50.12 153.92,-118.35 204.69,-204.63 50.77,-86.34 76.16,-180.25 76.16,-281.8 0,-101.55 -25.39,-194.87 -76.16,-279.91 -50.77,-85.04 -119,-152.32 -204.69,-201.79 -85.63,-49.53 -178.65,-74.27 -278.9,-74.27zm1064.35 1068.14c22.84,0 42.19,7.93 58.05,23.79 15.86,15.86 23.85,36.51 23.85,61.9 0,17.75 -6.98,41.84 -20.95,72.31l-95.22 217.06 -76.16 0 74.27 -215.17c-15.27,-6.33 -26.98,-16.45 -35.21,-30.42 -8.28,-13.97 -12.43,-28.58 -12.43,-43.79 0,-24.14 7.93,-44.44 23.85,-60.95 15.86,-16.51 35.86,-24.74 59.95,-24.74zm2088.7 -904.4c-53.32,-52.02 -114.92,-92.67 -184.69,-121.84 -69.83,-29.17 -142.2,-43.79 -217.06,-43.79 -102.85,0 -197.06,24.74 -282.75,74.27 -85.69,49.47 -153.56,117.05 -203.75,202.74 -50.12,85.69 -75.21,179.31 -75.21,280.85 0,101.55 25.09,194.81 75.21,279.91 50.18,85.04 118.06,152.62 203.75,202.74 85.69,50.12 179.9,75.21 282.75,75.21 73.62,0 145.34,-14.26 215.11,-42.84 69.83,-28.58 132.02,-68.23 186.64,-119l79.95 85.69c-66.04,60.95 -141.55,109.18 -226.59,144.69 -85.04,35.57 -171.97,53.32 -260.85,53.32 -125.63,0 -241.15,-30.48 -346.48,-91.37 -105.39,-60.95 -188.83,-143.44 -250.38,-247.54 -61.6,-104.09 -92.37,-217.65 -92.37,-340.8 0,-123.15 31.13,-236.12 93.32,-338.91 62.19,-102.79 146.28,-184.39 252.27,-244.64 105.99,-60.3 221.79,-90.48 347.49,-90.48 90.13,0 177.06,16.87 260.79,50.48 83.79,33.61 157.41,80.3 220.91,139.95l-78.05 91.37zm1003.4 -281.8c126.93,0 243.39,30.18 349.38,90.48 105.99,60.24 190.08,141.85 252.27,244.64 62.19,102.79 93.26,215.76 93.26,338.91 0,123.15 -31.07,236.71 -93.26,340.8 -62.19,104.09 -146.28,186.58 -252.27,247.54 -105.99,60.89 -222.45,91.37 -349.38,91.37 -126.93,0 -243.39,-30.48 -349.38,-91.37 -105.99,-60.95 -190.08,-143.44 -252.27,-247.54 -62.19,-104.09 -93.32,-217.65 -93.32,-340.8 0,-123.15 31.13,-236.12 93.32,-338.91 62.19,-102.79 146.28,-184.39 252.27,-244.64 105.99,-60.3 222.45,-90.48 349.38,-90.48zm1.89 118.06c-101.55,0 -195.46,24.74 -281.8,74.27 -86.28,49.47 -154.87,116.76 -205.64,201.79 -50.77,85.04 -76.16,178.36 -76.16,279.91 0,101.55 25.39,195.46 76.16,281.8 50.77,86.28 119.36,154.51 205.64,204.63 86.34,50.18 180.25,75.21 281.8,75.21 100.25,0 193.27,-25.03 278.9,-75.21 85.69,-50.12 153.92,-118.35 204.69,-204.63 50.77,-86.34 76.16,-180.25 76.16,-281.8 0,-101.55 -25.39,-194.87 -76.16,-279.91 -50.77,-85.04 -119,-152.32 -204.69,-201.79 -85.63,-49.53 -178.65,-74.27 -278.9,-74.27zm2052.49 -106.64l129.48 0 0 1330.89 -139.01 0 -824.39 -1127.14 0 1127.14 -131.37 0 0 -1330.89 139.01 0 826.29 1127.14 0 -1127.14zm466.55 -1.89l1010.98 0 0 119.95 -439.8 0 0 1212.83 -131.37 0 0 -1212.83 -439.8 0 0 -119.95zm2223.8 1332.78l-287.48 -434.12c-40.6,2.54 -71.72,3.85 -93.26,3.85l-365.59 0 0 430.27 -131.37 0 0 -1330.89 496.97 0c166.23,0 294.76,38.41 385.54,115.22 90.72,76.81 136.11,185.64 136.11,326.54 0,110.42 -26.63,202.44 -79.95,276.06 -53.32,73.62 -129.48,125.04 -228.48,154.21l319.85 458.86 -152.32 0zm-380.74 -548.33c126.87,0 224.63,-28.88 293.16,-86.63 68.59,-57.76 102.85,-141.2 102.85,-250.38 0,-106.64 -34.26,-187.83 -102.85,-243.69 -68.53,-55.86 -166.29,-83.79 -293.16,-83.79l-365.59 0 0 664.5 365.59 0zm1549.84 -793.97c126.93,0 243.39,30.18 349.38,90.48 105.99,60.24 190.08,141.85 252.27,244.64 62.19,102.79 93.26,215.76 93.26,338.91 0,123.15 -31.07,236.71 -93.26,340.8 -62.19,104.09 -146.28,186.58 -252.27,247.54 -105.99,60.89 -222.45,91.37 -349.38,91.37 -126.93,0 -243.39,-30.48 -349.38,-91.37 -105.99,-60.95 -190.08,-143.44 -252.27,-247.54 -62.19,-104.09 -93.32,-217.65 -93.32,-340.8 0,-123.15 31.13,-236.12 93.32,-338.91 62.19,-102.79 146.28,-184.39 252.27,-244.64 105.99,-60.3 222.45,-90.48 349.38,-90.48zm1.89 118.06c-101.55,0 -195.46,24.74 -281.8,74.27 -86.28,49.47 -154.87,116.76 -205.64,201.79 -50.77,85.04 -76.16,178.36 -76.16,279.91 0,101.55 25.39,195.46 76.16,281.8 50.77,86.28 119.36,154.51 205.64,204.63 86.34,50.18 180.25,75.21 281.8,75.21 100.25,0 193.27,-25.03 278.9,-75.21 85.69,-50.12 153.92,-118.35 204.69,-204.63 50.77,-86.34 76.16,-180.25 76.16,-281.8 0,-101.55 -25.39,-194.87 -76.16,-279.91 -50.77,-85.04 -119,-152.32 -204.69,-201.79 -85.63,-49.53 -178.65,-74.27 -278.9,-74.27zm1087.2 -106.64l131.37 0 0 1212.83 586.44 0 0 118.06 -717.81 0 0 -1330.89zm1081.46 0l891.08 0 0 118.06 -759.71 0 0 476.02 679.7 0 0 118 -679.7 0 0 500.75 784.45 0 0 118.06 -915.82 0 0 -1330.89zm-14209.46 1911.17l891.08 0 0 118.06 -759.71 0 0 476.02 679.7 0 0 118 -679.7 0 0 500.75 784.45 0 0 118.06 -915.82 0 0 -1330.89zm1782.17 -1.89l1010.98 0 0 119.95 -439.8 0 0 1212.83 -131.37 0 0 -1212.83 -439.8 0 0 -119.95zm1346.09 1.89l891.08 0 0 118.06 -759.71 0 0 476.02 679.7 0 0 118 -679.7 0 0 500.75 784.45 0 0 118.06 -915.82 0 0 -1330.89zm2309.55 270.38c-53.32,-52.02 -114.92,-92.67 -184.69,-121.84 -69.83,-29.17 -142.2,-43.79 -217.06,-43.79 -102.85,0 -197.06,24.74 -282.75,74.27 -85.69,49.47 -153.56,117.05 -203.75,202.74 -50.12,85.69 -75.21,179.31 -75.21,280.85 0,101.55 25.09,194.81 75.21,279.91 50.18,85.04 118.06,152.62 203.75,202.74 85.69,50.12 179.9,75.21 282.75,75.21 73.62,0 145.34,-14.26 215.11,-42.84 69.83,-28.58 132.02,-68.23 186.64,-119l79.95 85.69c-66.04,60.95 -141.55,109.18 -226.59,144.69 -85.04,35.57 -171.97,53.32 -260.85,53.32 -125.63,0 -241.15,-30.48 -346.48,-91.37 -105.39,-60.95 -188.83,-143.44 -250.38,-247.54 -61.6,-104.09 -92.37,-217.65 -92.37,-340.8 0,-123.15 31.13,-236.12 93.32,-338.91 62.19,-102.79 146.28,-184.39 252.27,-244.64 105.99,-60.3 221.79,-90.48 347.49,-90.48 90.13,0 177.06,16.87 260.79,50.48 83.79,33.61 157.41,80.3 220.91,139.95l-78.05 91.37zm1437.46 -270.38l129.48 0 0 1330.89 -139.01 0 -824.39 -1127.14 0 1127.14 -131.37 0 0 -1330.89 139.01 0 826.29 1127.14 0 -1127.14zm1220.52 -11.42c126.93,0 243.39,30.18 349.38,90.48 105.99,60.24 190.08,141.85 252.27,244.64 62.19,102.79 93.26,215.76 93.26,338.91 0,123.15 -31.07,236.71 -93.26,340.8 -62.19,104.09 -146.28,186.58 -252.27,247.54 -105.99,60.89 -222.45,91.37 -349.38,91.37 -126.93,0 -243.39,-30.48 -349.38,-91.37 -105.99,-60.95 -190.08,-143.44 -252.27,-247.54 -62.19,-104.09 -93.32,-217.65 -93.32,-340.8 0,-123.15 31.13,-236.12 93.32,-338.91 62.19,-102.79 146.28,-184.39 252.27,-244.64 105.99,-60.3 222.45,-90.48 349.38,-90.48zm1.89 118.06c-101.55,0 -195.46,24.74 -281.8,74.27 -86.28,49.47 -154.87,116.76 -205.64,201.79 -50.77,85.04 -76.16,178.36 -76.16,279.91 0,101.55 25.39,195.46 76.16,281.8 50.77,86.28 119.36,154.51 205.64,204.63 86.34,50.18 180.25,75.21 281.8,75.21 100.25,0 193.27,-25.03 278.9,-75.21 85.69,-50.12 153.92,-118.35 204.69,-204.63 50.77,-86.34 76.16,-180.25 76.16,-281.8 0,-101.55 -25.39,-194.87 -76.16,-279.91 -50.77,-85.04 -119,-152.32 -204.69,-201.79 -85.63,-49.53 -178.65,-74.27 -278.9,-74.27zm1087.2 -106.64l131.37 0 0 1212.83 586.44 0 0 118.06 -717.81 0 0 -1330.89zm1646.95 -11.42c126.93,0 243.39,30.18 349.38,90.48 105.99,60.24 190.08,141.85 252.27,244.64 62.19,102.79 93.26,215.76 93.26,338.91 0,123.15 -31.07,236.71 -93.26,340.8 -62.19,104.09 -146.28,186.58 -252.27,247.54 -105.99,60.89 -222.45,91.37 -349.38,91.37 -126.93,0 -243.39,-30.48 -349.38,-91.37 -105.99,-60.95 -190.08,-143.44 -252.27,-247.54 -62.19,-104.09 -93.32,-217.65 -93.32,-340.8 0,-123.15 31.13,-236.12 93.32,-338.91 62.19,-102.79 146.28,-184.39 252.27,-244.64 105.99,-60.3 222.45,-90.48 349.38,-90.48zm1.89 118.06c-101.55,0 -195.46,24.74 -281.8,74.27 -86.28,49.47 -154.87,116.76 -205.64,201.79 -50.77,85.04 -76.16,178.36 -76.16,279.91 0,101.55 25.39,195.46 76.16,281.8 50.77,86.28 119.36,154.51 205.64,204.63 86.34,50.18 180.25,75.21 281.8,75.21 100.25,0 193.27,-25.03 278.9,-75.21 85.69,-50.12 153.92,-118.35 204.69,-204.63 50.77,-86.34 76.16,-180.25 76.16,-281.8 0,-101.55 -25.39,-194.87 -76.16,-279.91 -50.77,-85.04 -119,-152.32 -204.69,-201.79 -85.63,-49.53 -178.65,-74.27 -278.9,-74.27zm1995.38 573.07l116.1 0 0 487.44c-64.74,54.56 -139.95,97.4 -225.58,128.53 -85.69,31.07 -172.97,46.63 -261.8,46.63 -125.69,0 -241.5,-30.48 -347.49,-91.37 -105.99,-60.95 -190.08,-143.44 -252.27,-247.54 -62.19,-104.09 -93.32,-217.65 -93.32,-340.8 0,-123.15 31.13,-236.12 93.32,-338.91 62.19,-102.79 146.94,-184.39 254.16,-244.64 107.29,-60.3 224.34,-90.48 351.27,-90.48 90.13,0 177.41,15.86 261.8,47.64 84.39,31.72 159.01,76.16 223.75,133.27l-76.16 93.26c-54.62,-50.77 -117.41,-89.77 -188.54,-117.05 -71.07,-27.28 -144.69,-40.95 -220.85,-40.95 -102.79,0 -197.35,25.09 -283.69,75.21 -86.28,50.12 -154.87,117.7 -205.64,202.74 -50.77,85.04 -76.16,178.36 -76.16,279.91 0,102.79 25.39,197.06 76.16,282.75 50.77,85.69 119.66,153.56 206.59,203.69 86.99,50.18 181.85,75.21 284.64,75.21 63.5,0 126.64,-10.47 189.48,-31.42 62.79,-20.95 120.9,-50.42 174.22,-88.53l0 -424.59zm607.33 -679.7l131.37 0 0 1330.89 -131.37 0 0 -1330.89zm1648.84 1330.89l-158 -354.11 -738.76 0 -156.11 354.11 -140.9 0 599.76 -1330.89 137.05 0 599.76 1330.89 -142.79 0zm-845.34 -472.17l635.91 0 -319.85 -719.71 -316.06 719.71z"/>
  <rect class="fil6" width="48048.8" height="6513.35"/>
 </g>
</svg>
