<svg xmlns="http://www.w3.org/2000/svg" xmlns:xlink="http://www.w3.org/1999/xlink" width="1671" height="576" viewBox="0 0 1671 576">
  <defs>
    <clipPath id="clip-path">
      <rect id="Ret칙ngulo_1228" data-name="Ret칙ngulo 1228" width="1671" height="576" transform="translate(249 685)" fill="#fff" stroke="#707070" stroke-width="1" opacity="0.221"/>
    </clipPath>
    <linearGradient id="linear-gradient" x1="1" y1="0.517" x2="0" y2="0.483" gradientUnits="objectBoundingBox">
      <stop offset="0" stop-color="#00c0f3"/>
      <stop offset="0.595" stop-color="#008bf3"/>
      <stop offset="1" stop-color="#0067f3"/>
    </linearGradient>
  </defs>
  <g id="Grupo_de_m치scara_102" data-name="Grupo de m치scara 102" transform="translate(-249 -685)" clip-path="url(#clip-path)">
    <g id="Grupo_4697" data-name="Grupo 4697">
      <path id="Caminho_250" data-name="Caminho 250" d="M144.973,0,696.068,1.073c81.723,0,147.973,65.522,147.973,146.347s-66.25,146.347-147.973,146.347l-551.095-1.073C63.25,292.694-3,227.173-3,146.347S63.25,0,144.973,0Z" transform="translate(251.703 685)" fill="#fff"/>
      <path id="Fill_1" data-name="Fill 1" d="M1544.472,373.565c-130.715,0-189.521-57.629-278.534-144.866C1161.973,126.812,1032.589,0,782.141,0H752.794L87.335.4A146.7,146.7,0,0,0-59.326,147.129h0A146.693,146.693,0,0,0,87.335,293.852l665.459-.4h29.346c130.717,0,189.521,57.629,278.535,144.866,103.965,101.887,233.346,228.7,483.8,228.7" transform="translate(703.026 684.688)" fill="url(#linear-gradient)"/>
    </g>
  </g>
</svg>
