<svg xmlns="http://www.w3.org/2000/svg" xmlns:xlink="http://www.w3.org/1999/xlink" width="165" height="85" viewBox="0 0 165 85">
  <defs>
    <clipPath id="clip-path">
      <rect id="Rectangle_1339" data-name="Rectangle 1339" width="165" height="85" fill="#fff" opacity="0.2"/>
    </clipPath>
    <linearGradient id="linear-gradient" x1="1" y1="0.517" x2="0" y2="0.483" gradientUnits="objectBoundingBox">
      <stop offset="0" stop-color="#00c0f3"/>
      <stop offset="1" stop-color="#0067f3"/>
    </linearGradient>
  </defs>
  <g id="header-logo-mobile" clip-path="url(#clip-path)">
    <path id="base_marca_svg" d="M133.574,513.091H84.615C32.423,513.091,0,480.623,0,428.354V30.7a30.66,30.66,0,1,1,61.32,0v397.65c0,19.957,5.817,23.328,23.295,23.328h48.959a30.7,30.7,0,0,1,0,61.408" transform="translate(0.281 -429)" fill="url(#linear-gradient)"/>
    <g id="Logo_BluTV" transform="translate(79.467 40.941)">
      <path id="Shape" d="M23.575,0a2.441,2.441,0,0,0-2.393,1.858,8.36,8.36,0,0,1-8.156,6.471A8.36,8.36,0,0,1,4.869,1.858,2.439,2.439,0,0,0,2.474,0,2.458,2.458,0,0,0,.063,2.992,13.3,13.3,0,0,0,13.024,13.246,13.3,13.3,0,0,0,25.984,2.992,2.457,2.457,0,0,0,23.573,0" transform="translate(26.721 9.548)" fill="#fff"/>
      <path id="Shape-2" data-name="Shape" d="M8.767,20.518H7.127A2.124,2.124,0,0,1,5,18.4V2.452a2.5,2.5,0,0,0-5,0L0,23.008A2.5,2.5,0,0,0,2.5,25.5s.007,0,.013,0l6.338,0a2.495,2.495,0,0,0,2.495-2.655,2.554,2.554,0,0,0-2.58-2.321" transform="translate(16.661 0.037)" fill="#fff"/>
      <path id="Shape-3" data-name="Shape" d="M4.115,25.523H2.42a2.426,2.426,0,0,1-1.7-.7,2.372,2.372,0,0,1-.7-1.694c0-.009,0-.017,0-.025s0-.014,0-.021A2.109,2.109,0,0,1,0,22.794V2.395H.018A2.4,2.4,0,0,1,2.422,0H4.569A2.168,2.168,0,0,1,4.9.027a10.575,10.575,0,0,1,2.01.215,7.482,7.482,0,0,1,5.013,11.5,6.757,6.757,0,0,1-.866,1.019,7.274,7.274,0,0,1,1.3,1.842,7.481,7.481,0,0,1-.44,7.492,7.439,7.439,0,0,1-3.638,2.723A9.585,9.585,0,0,1,4.115,25.523Zm1.693-10.19A.758.758,0,0,0,5,16.064v3.582a.071.071,0,0,0,.016.017,1.027,1.027,0,0,0,.176.718.819.819,0,0,0,.63.272l.066.009A2.934,2.934,0,0,0,8.2,19.544a2.933,2.933,0,0,0,.114-2.931,3.305,3.305,0,0,0-2.475-1.281Zm0-10.374A.765.765,0,0,0,5,5.687V9.624a.74.74,0,0,0,.635.712A3.1,3.1,0,0,0,8.2,9.192a2.924,2.924,0,0,0,.115-2.931A3.309,3.309,0,0,0,5.81,4.958Z" transform="translate(0 0)" fill="#fff"/>
      <path id="Shape-4" data-name="Shape" d="M5.309,0H.782a.8.8,0,0,0,0,1.6h.66a.8.8,0,0,1,.8.8V6.661a.8.8,0,0,0,1.6,0V2.395a.8.8,0,0,1,.8-.8h.66a.8.8,0,0,0,.712-1.2A.8.8,0,0,0,5.309,0" transform="translate(47.539)" fill="#fff"/>
      <path id="Shape-5" data-name="Shape" d="M5.384,0h0A.807.807,0,0,0,4.63.527L3.85,2.679a.8.8,0,0,1-1.509,0L1.566.531A.8.8,0,0,0,.81,0H.8a.8.8,0,0,0-.75,1.079L2.259,6.949a.8.8,0,0,0,.751.516h.177a.8.8,0,0,0,.75-.519l2.2-5.863A.8.8,0,0,0,5.384,0" transform="translate(55.293)" fill="#fff"/>
      <path id="Shape-6" data-name="Shape" d="M2.636,5.251A2.624,2.624,0,0,0,4.5.769,2.631,2.631,0,1,0,2.636,5.251" transform="translate(37.109 5.282)" fill="#fff"/>
    </g>
  </g>
</svg>
