<svg xmlns="http://www.w3.org/2000/svg" xmlns:xlink="http://www.w3.org/1999/xlink" width="1672" height="705" viewBox="0 0 1672 705">
  <defs>
    <clipPath id="clip-path">
      <rect id="Rectangle_1339" data-name="Rectangle 1339" width="1672" height="705" transform="translate(0 8106)" fill="#fff" opacity="0.54"/>
    </clipPath>
    <linearGradient id="linear-gradient" x1="1.113" y1="0.385" x2="0.758" y2="0.358" gradientUnits="objectBoundingBox">
      <stop offset="0" stop-color="#00c0f3"/>
      <stop offset="0.595" stop-color="#008bf3"/>
      <stop offset="1" stop-color="#0067f3"/>
    </linearGradient>
  </defs>
  <g id="nosso-aplicativo-background" transform="translate(0 -8106)" clip-path="url(#clip-path)">
    <path id="Fill_1" data-name="Fill 1" d="M496.166,533.739c202.348-5.319,19.852-91.554,152.184-210.9C807.835,179,1006.33,0,1390.747,0c383.165,0,581.111,181.162,740.173,326.694,136.179,124.648,226.145,206.976,426.144,206.976s289.981-82.328,426.179-206.976C3142.291,181.139,3340.257,0,3723.423,0s581.109,181.139,740.167,326.694c136.185,124.648,226.161,206.976,426.162,206.976,199.98,0,289.946-82.328,426.127-206.954C5474.934,181.162,5672.876,0,6056.035,0h932.658c123.915,0,224.375,93.844,224.375,209.607h0c0,115.763-100.46,209.613-224.375,209.613H6056.035c-199.982,0-289.945,82.328-426.126,206.954-159.056,145.554-357,326.713-740.157,326.713s-581.116-181.158-740.177-326.7C4013.389,501.548,3923.416,419.22,3723.423,419.22s-289.973,82.328-426.178,206.969c-159.052,145.554-357.011,326.7-740.181,326.7s-581.118-181.158-740.163-326.7C1680.713,501.548,1590.74,419.22,1390.747,419.22c-203.165,0-293.7,81.638-430.741,205.237C802.7,766.314,606.92,942.875,230.712,952.81c-2.165.057-4.3.076-6.453.076C103.285,952.886,3.531,862.893.091,749.194-3.4,633.462,94.171,537.013,218.043,533.739" transform="translate(-5543.069 8106.968)" fill="url(#linear-gradient)"/>
  </g>
</svg>
