<?xml version="1.0" encoding="UTF-8"?>
<!DOCTYPE svg PUBLIC "-//W3C//DTD SVG 1.1//EN" "http://www.w3.org/Graphics/SVG/1.1/DTD/svg11.dtd">
<!-- Creator: CorelDRAW 2020 (64 Bit) -->
<svg xmlns="http://www.w3.org/2000/svg" xml:space="preserve" width="74.5068mm" height="16.9333mm" version="1.1" style="shape-rendering:geometricPrecision; text-rendering:geometricPrecision; image-rendering:optimizeQuality; fill-rule:evenodd; clip-rule:evenodd"
viewBox="0 0 14104.61 3205.58"
 xmlns:xlink="http://www.w3.org/1999/xlink"
 xmlns:xodm="http://www.corel.com/coreldraw/odm/2003">
 <defs>
  <style type="text/css">
   <![CDATA[
    .fil0 {fill:none}
    .fil2 {fill:#87DC28}
    .fil3 {fill:#B9E51F}
    .fil1 {fill:#FEFEFE;fill-rule:nonzero}
    .fil4 {fill:#727376;fill-rule:nonzero}
   ]]>
  </style>
    <mask id="id0">
  <linearGradient id="id1" gradientUnits="userSpaceOnUse" x1="3722.73" y1="444.49" x2="2706.09" y2="2205.38">
   <stop offset="0" style="stop-opacity:1; stop-color:white"/>
   <stop offset="1" style="stop-opacity:0; stop-color:white"/>
  </linearGradient>
     <rect style="fill:url(#id1)" x="2075.71" y="1850.98" width="2185.11" height="606.44"/>
    </mask>
    <mask id="id2">
  <linearGradient id="id3" gradientUnits="userSpaceOnUse" x1="5454.63" y1="3662.17" x2="5454.69" y2="1428.64">
   <stop offset="0" style="stop-opacity:1; stop-color:white"/>
   <stop offset="1" style="stop-opacity:0; stop-color:white"/>
  </linearGradient>
     <rect style="fill:url(#id3)" x="1088.85" y="274.34" width="12349.66" height="2656.88"/>
    </mask>
 </defs>
 <g id="Camada_x0020_1">
  <metadata id="CorelCorpID_0Corel-Layer"/>
  <rect class="fil0" x="0.01" y="0.01" width="14104.59" height="3205.58"/>
  <g id="_1741263603552">
   <path class="fil1" d="M3243.69 2883.57c-56.75,-146.56 -105.39,-269.4 -149.44,-378.57l705.28 0.08 158.77 378.5 -714.61 0zm-439.19 -1080.03c-76.12,-185.54 -164.75,-406.72 -286.42,-723.6 -146.28,373.2 -240.68,602.54 -319.78,789.98l-674.29 0.23 667.91 -1555.47 688.94 0 624.45 1488.88 -446.06 0.15 -254.75 -0.15zm-847.07 634.93c-50,120.85 -107.58,262.85 -179.61,445.1l-688.96 0 191.14 -445.13 97.32 0 580.11 0.04zm3913.38 -1251.64c-83.05,-105.05 -182,-188.72 -296.81,-251 -114.83,-62.32 -228.44,-93.48 -340.83,-93.48 -129.49,0 -300.68,32.43 -406.95,97.13 -106.28,64.74 -189.99,153.94 -251.04,267.51 -61.05,113.62 -91.62,240.04 -91.62,379.29 0,139.25 30.57,265.69 91.62,379.31 61.05,113.55 144.76,202.77 251.04,267.51 106.28,64.7 277.47,97.1 406.95,97.1 105.08,0 215,-26.86 329.85,-80.63 114.8,-53.74 217.42,-127.02 307.79,-219.88l392.13 421.45c-139.25,146.56 -304.78,263.23 -496.57,349.97 -191.77,86.74 -381.72,130.09 -569.83,130.09 -254.11,0 -483.73,-58.63 -688.98,-175.9 -120.25,-68.74 -225.48,-152.11 -315.52,-250.23l157.37 0 -0.06 -0.15 0.06 0 -0.85 -1.86 -288.79 -699.73 -197.47 0.06c-9.58,-67.92 -14.37,-137.87 -14.37,-209.81 0,-249.16 59.86,-473.93 179.58,-674.27 119.72,-200.34 284,-357.9 492.88,-472.75 208.92,-114.8 442.81,-172.23 701.78,-172.23 190.59,0 378.71,39.7 564.38,119.11 185.65,79.4 343.25,187.51 472.74,324.32l-388.48 469.06zm561.08 -872.17l2202.48 0 0 553.36 -769.61 0 0 2015.54 -670.62 0 0 -2015.54 -762.26 0 0 -553.36zm2473.68 0l2026.52 0 0 535.04 -1355.91 0 0 480.08 1090.63 0 0 531.36 -1090.63 3.67 0 483.73 1392.56 0 0 535.02 -2063.17 0 0 -2568.91zm4140.81 872.17c-83.05,-105.05 -182.07,-188.78 -296.81,-251 -114.78,-62.26 -228.44,-93.48 -340.83,-93.48 -129.49,0 -300.75,32.48 -406.95,97.13 -106.22,64.69 -190.04,154 -251.04,267.51 -60.99,113.55 -91.62,240.04 -91.62,379.29 0,139.25 30.63,265.77 91.62,379.31 60.99,113.47 144.82,202.82 251.04,267.51 106.2,64.65 277.47,97.1 406.95,97.1 105.07,0 215.05,-26.94 329.83,-80.63 114.76,-53.69 217.42,-127.02 307.81,-219.88l392.13 421.45c-139.25,146.56 -304.78,263.23 -496.57,349.97 -191.77,86.74 -381.72,130.09 -569.83,130.09 -254.11,0 -483.81,-58.7 -688.98,-175.9 -205.13,-117.2 -366.44,-277.31 -483.7,-480.08 -117.28,-202.77 -175.94,-429.95 -175.94,-681.64 0,-249.16 59.88,-473.93 179.59,-674.27 119.72,-200.34 284,-357.94 492.88,-472.75 208.88,-114.8 442.81,-172.23 701.78,-172.23 190.57,0 378.76,39.75 564.36,119.11 185.61,79.34 343.27,187.51 472.75,324.32l-388.48 469.06z"/>
   <polygon class="fil2" points="4241.88,2438.44 2094.64,2438.49 2335.49,1869.91 3167.59,1870.19 4007.2,1869.91 "/>
   <polygon class="fil3" style="mask:url(#id0)" points="4241.88,2438.44 2094.64,2438.49 2335.49,1869.91 3167.59,1870.19 4007.2,1869.91 "/>
   <path class="fil4" style="mask:url(#id2)" d="M3243.69 2883.57c-56.75,-146.56 -105.39,-269.4 -149.44,-378.57l705.28 0.08 158.77 378.5 -714.61 0zm-439.19 -1080.03c-76.12,-185.54 -164.75,-406.72 -286.42,-723.6 -146.28,373.2 -240.68,602.54 -319.78,789.98l-674.29 0.23 667.91 -1555.47 688.94 0 624.45 1488.88 -446.06 0.15 -254.75 -0.15zm-847.07 634.93c-50,120.85 -107.58,262.85 -179.61,445.1l-688.96 0 191.14 -445.13 97.32 0 580.11 0.04zm3913.38 -1251.64c-83.05,-105.05 -182,-188.72 -296.81,-251 -114.83,-62.32 -228.44,-93.48 -340.83,-93.48 -129.49,0 -300.68,32.43 -406.95,97.13 -106.28,64.74 -189.99,153.94 -251.04,267.51 -61.05,113.62 -91.62,240.04 -91.62,379.29 0,139.25 30.57,265.69 91.62,379.31 61.05,113.55 144.76,202.77 251.04,267.51 106.28,64.7 277.47,97.1 406.95,97.1 105.08,0 215,-26.86 329.85,-80.63 114.8,-53.74 217.42,-127.02 307.79,-219.88l392.13 421.45c-139.25,146.56 -304.78,263.23 -496.57,349.97 -191.77,86.74 -381.72,130.09 -569.83,130.09 -254.11,0 -483.73,-58.63 -688.98,-175.9 -120.25,-68.74 -225.48,-152.11 -315.52,-250.23l157.37 0 -0.06 -0.15 0.06 0 -0.85 -1.86 -288.79 -699.73 -197.47 0.06c-9.58,-67.92 -14.37,-137.87 -14.37,-209.81 0,-249.16 59.86,-473.93 179.58,-674.27 119.72,-200.34 284,-357.9 492.88,-472.75 208.92,-114.8 442.81,-172.23 701.78,-172.23 190.59,0 378.71,39.7 564.38,119.11 185.65,79.4 343.25,187.51 472.74,324.32l-388.48 469.06zm561.08 -872.17l2202.48 0 0 553.36 -769.61 0 0 2015.54 -670.62 0 0 -2015.54 -762.26 0 0 -553.36zm2473.68 0l2026.52 0 0 535.04 -1355.91 0 0 480.08 1090.63 0 0 531.36 -1090.63 3.67 0 483.73 1392.56 0 0 535.02 -2063.17 0 0 -2568.91zm4140.81 872.17c-83.05,-105.05 -182.07,-188.78 -296.81,-251 -114.78,-62.26 -228.44,-93.48 -340.83,-93.48 -129.49,0 -300.75,32.48 -406.95,97.13 -106.22,64.69 -190.04,154 -251.04,267.51 -60.99,113.55 -91.62,240.04 -91.62,379.29 0,139.25 30.63,265.77 91.62,379.31 60.99,113.47 144.82,202.82 251.04,267.51 106.2,64.65 277.47,97.1 406.95,97.1 105.07,0 215.05,-26.94 329.83,-80.63 114.76,-53.69 217.42,-127.02 307.81,-219.88l392.13 421.45c-139.25,146.56 -304.78,263.23 -496.57,349.97 -191.77,86.74 -381.72,130.09 -569.83,130.09 -254.11,0 -483.81,-58.7 -688.98,-175.9 -205.13,-117.2 -366.44,-277.31 -483.7,-480.08 -117.28,-202.77 -175.94,-429.95 -175.94,-681.64 0,-249.16 59.88,-473.93 179.59,-674.27 119.72,-200.34 284,-357.94 492.88,-472.75 208.88,-114.8 442.81,-172.23 701.78,-172.23 190.57,0 378.76,39.75 564.36,119.11 185.61,79.34 343.27,187.51 472.75,324.32l-388.48 469.06z"/>
  </g>
 </g>
</svg>
