<svg xmlns="http://www.w3.org/2000/svg" xmlns:xlink="http://www.w3.org/1999/xlink" width="768" height="564" viewBox="0 0 768 564">
  <defs>
    <clipPath id="clip-path">
      <rect id="Rectangle_1325" data-name="Rectangle 1325" width="768" height="564" transform="translate(-196 3234)" fill="#fff"/>
    </clipPath>
    <clipPath id="clip-path-2">
      <rect id="Rectangle_721" data-name="Rectangle 721" width="3196.924" height="1223.585" fill="#fff" stroke="#707070" stroke-width="1"/>
    </clipPath>
    <linearGradient id="linear-gradient" x1="1.014" y1="0.28" x2="0.349" y2="0.395" gradientUnits="objectBoundingBox">
      <stop offset="0" stop-color="#9013fe"/>
      <stop offset="0.68" stop-color="#9013fe"/>
      <stop offset="1" stop-color="#6f00fe"/>
    </linearGradient>
  </defs>
  <g id="atendimento-mobile" transform="translate(196 -3234)" clip-path="url(#clip-path)">
    <g id="Mask_Group_55" data-name="Mask Group 55" transform="translate(-955.924 2696.715)" clip-path="url(#clip-path-2)">
      <path id="Fill_1" data-name="Fill 1" d="M5323.564,439.582c-166.653-4.381-245.41-75.4-354.4-173.692C4837.816,147.419,4674.337,0,4357.735,0c-315.572,0-478.6,149.2-609.6,269.062-112.155,102.659-186.251,170.463-350.969,170.463s-238.825-67.8-351-170.463C2915.18,149.185,2752.136,0,2436.564,0s-478.6,149.185-609.594,269.062c-112.16,102.659-186.264,170.463-350.982,170.463-164.7,0-238.8-67.8-350.955-170.445C994.037,149.2,831.013,0,515.447,0q-9.354,0-18.484.861Q487.839.016,478.47,0H307.793C205.737,0,123,77.289,123,172.63v.005c0,95.342,82.737,172.63,184.793,172.63H478.47q9.362,0,18.492-.861,9.119.849,18.484.861c164.7,0,238.8,67.8,350.955,170.445,131,119.877,294.017,269.077,609.586,269.077s478.6-149.2,609.6-269.064c112.16-102.653,186.261-170.458,350.974-170.458s238.819,67.8,351,170.458c130.994,119.877,294.031,269.064,609.606,269.064s478.6-149.2,609.592-269.064c112.164-102.653,186.264-170.458,350.977-170.458,167.325,0,241.884,67.236,354.754,169.032,129.553,116.831,290.8,262.245,600.64,270.428,1.784.047,3.545.062,5.315.062,99.633,0,181.79-74.118,184.623-167.759,2.878-95.315-77.483-174.75-179.5-177.447" transform="translate(-350.004 315.106)" fill="url(#linear-gradient)"/>
    </g>
  </g>
</svg>
