<svg xmlns="http://www.w3.org/2000/svg" xmlns:xlink="http://www.w3.org/1999/xlink" width="1680" height="423" viewBox="0 0 1680 423">
  <defs>
    <clipPath id="clip-path">
      <rect id="Rectangle_721" data-name="Rectangle 721" width="1680" height="423" transform="translate(240 4006.516)" fill="#fff" opacity="0.27"/>
    </clipPath>
    <linearGradient id="linear-gradient" x1="1.014" y1="0.28" x2="0.349" y2="0.395" gradientUnits="objectBoundingBox">
      <stop offset="0" stop-color="#9013fe"/>
      <stop offset="0.68" stop-color="#9013fe"/>
      <stop offset="1" stop-color="#6f00fe"/>
    </linearGradient>
  </defs>
  <g id="atendimento" transform="translate(-240 -4006.516)" clip-path="url(#clip-path)">
    <path id="Fill_1" data-name="Fill 1" d="M2855.922,231c-87.577-2.3-128.964-39.625-186.237-91.276C2600.66,77.47,2514.751,0,2348.375,0c-165.834,0-251.506,78.407-320.348,141.393-58.938,53.948-97.876,89.579-184.436,89.579s-125.5-35.632-184.451-89.579C1590.3,78.4,1504.625,0,1338.79,0s-251.5,78.4-320.345,141.393C959.5,195.341,920.562,230.973,834,230.973S708.513,195.341,649.573,141.4C580.734,78.407,495.064,0,329.233,0q-4.915,0-9.713.452Q314.725.008,309.8,0H220.11C166.479,0,123,40.616,123,90.718v0c0,50.1,43.479,90.718,97.11,90.718H309.8q4.92,0,9.718-.452,4.792.446,9.713.452c86.553,0,125.489,35.632,184.428,89.57C582.5,334,668.169,412.41,834,412.41S1085.509,334,1154.351,271.015c58.941-53.945,97.881-89.577,184.439-89.577s125.5,35.632,184.45,89.577c68.838,63,154.515,141.395,320.351,141.395S2095.1,334,2163.935,271.015c58.942-53.945,97.883-89.577,184.44-89.577,87.93,0,127.111,35.333,186.425,88.827,68.081,61.4,152.816,137.811,315.639,142.111.937.025,1.863.033,2.793.033,52.358,0,95.531-38.949,97.02-88.158,1.512-50.089-40.718-91.832-94.33-93.249" transform="translate(117.708 4012.105)" fill="url(#linear-gradient)"/>
  </g>
</svg>
