<svg xmlns="http://www.w3.org/2000/svg" xmlns:xlink="http://www.w3.org/1999/xlink" width="768" height="826" viewBox="0 0 768 826">
  <defs>
    <clipPath id="clip-path">
      <rect id="Rectangle_1325" data-name="Rectangle 1325" width="768" height="826" transform="translate(-196 6665)" fill="#fff" opacity="0.37"/>
    </clipPath>
    <linearGradient id="linear-gradient" x1="1.113" y1="0.385" x2="0.758" y2="0.358" gradientUnits="objectBoundingBox">
      <stop offset="0" stop-color="#00c0f3"/>
      <stop offset="0.595" stop-color="#008bf3"/>
      <stop offset="1" stop-color="#0067f3"/>
    </linearGradient>
  </defs>
  <g id="nosso-aplicativo-background-mobile" transform="translate(196 -6665)" clip-path="url(#clip-path)">
    <path id="Fill_1" data-name="Fill 1" d="M776.647,835.46c316.735-8.326,31.074-143.31,238.213-330.114C1264.5,280.182,1575.205,0,2176.931,0c599.768,0,909.612,283.572,1158.59,511.372,213.16,195.111,353.984,323.978,667.041,323.978,313.076,0,453.906-128.868,667.1-323.978C4918.617,283.537,5228.493,0,5828.261,0s909.607,283.537,1158.581,511.372c213.169,195.111,354.008,323.978,667.069,323.978,313.029,0,453.852-128.868,667.014-323.944C8569.895,283.572,8879.733,0,9479.49,0h1459.885c193.966,0,351.214,146.893,351.214,328.1h0c0,181.2-157.248,328.107-351.214,328.107H9479.49c-313.031,0-453.851,128.868-667.015,323.944-248.969,227.835-558.8,511.4-1158.564,511.4s-909.619-283.567-1158.6-511.377c-213.169-195.1-354-323.968-667.052-323.968-313.07,0-453.895,128.868-667.1,323.968-248.963,227.836-558.829,511.377-1158.6,511.377s-909.622-283.567-1158.574-511.377C2630.813,785.071,2489.98,656.2,2176.931,656.2c-318.014,0-459.719,127.787-674.237,321.257C1256.47,1199.508,950.01,1475.878,361.133,1491.43c-3.389.089-6.738.119-10.1.119-189.36,0-345.5-140.866-350.889-318.839C-5.327,991.556,147.406,840.584,341.3,835.46" transform="translate(-7084.587 3123.139) rotate(22)" fill="url(#linear-gradient)"/>
  </g>
</svg>
